<svg id="Layer_1" enable-background="new 0 0 493.973 493.973" height="512" viewBox="0 0 493.973 493.973" width="512" xmlns="http://www.w3.org/2000/svg"><g id="XMLID_1200_"><path id="XMLID_1204_" d="m196.988 339.411-42.426-42.426-74.247-74.246-41.09 46.775c-34.401 44.229-47.058 101.59-34.45 156.186l11.9 51.597 51.598 11.901c54.596 12.608 111.957-.049 156.186-34.45l46.775-41.09zm-10.607 74.247-106.066-106.066 21.213-21.214 106.066 106.066z"/><path id="XMLID_1203_" d="m316.757 134.79-140.983 140.982 42.427 42.427 140.981-140.982c-8.799-4.756-17.005-10.812-24.31-18.117-7.303-7.305-13.359-15.511-18.115-24.31z"/><path id="XMLID_1202_" d="m436.515 154.674-97.216-97.215c-10.542 26.912-4.957 58.683 16.788 80.427 21.745 21.745 53.516 27.33 80.428 16.788z"/><path id="XMLID_1201_" d="m402.53-6.057h45v150h-45z" transform="matrix(.707 -.707 .707 .707 75.738 320.734)"/></g></svg>